<svg xmlns="http://www.w3.org/2000/svg" viewBox="0 0 64 64" fill="none">
  <defs>
    <linearGradient id="g1" x1="0" y1="0" x2="64" y2="64" gradientUnits="userSpaceOnUse">
      <stop offset="0%" stop-color="#fb923c"/>
      <stop offset="100%" stop-color="#f97316"/>
    </linearGradient>
    <linearGradient id="g2" x1="0" y1="0" x2="64" y2="64" gradientUnits="userSpaceOnUse">
      <stop offset="0%" stop-color="#fb923c" stop-opacity="0.65"/>
      <stop offset="100%" stop-color="#ea580c" stop-opacity="0.65"/>
    </linearGradient>
  </defs>
  <path d="M32 34 C28 22, 10 14, 12 28 C13 36, 24 38, 32 34Z" fill="url(#g1)"/>
  <path d="M32 34 C36 22, 54 14, 52 28 C51 36, 40 38, 32 34Z" fill="url(#g1)"/>
  <path d="M32 36 C26 44, 12 46, 14 38 C16 32, 26 32, 32 36Z" fill="url(#g2)"/>
  <path d="M32 36 C38 44, 52 46, 50 38 C48 32, 38 32, 32 36Z" fill="url(#g2)"/>
  <ellipse cx="32" cy="35" rx="2.5" ry="4.5" fill="#fed7aa"/>
</svg>
